# xmcd
#
# Track frame offsets:
#	150
#	10680
#	25595
#	35347
#	50632
#	61935
#	71535
#	85852
#	96477
#	110245
#	122679
#	132220
#	142282
#	162432
#	177265
#	190877
#
# Disc length: 2717 seconds
#
# Revision: 5
# Processed by: cddbd v1.5.2PL0 Copyright (c) Steve Scherf et al.
# Submitted via: audiograbber 1.83.01
#
DISCID=e20a9b10
DTITLE=Various Artist - Trucker and Country Hits CD 4
DYEAR=1995
DGENRE=Country
TTITLE0=Johnny Cash - You Win Again
TTITLE1=Frankie Laine - Sixteen Tons
TTITLE2=Eddie Jones - Deep In The Heart Of Texas
TTITLE3=Andy Forstmann - My Tennessee Home
TTITLE4=George Jones - I Cant Change Over Night
TTITLE5=Jerry Lee Lewis - Walk Right In
TTITLE6=Billy Joe Spears - I'll Never Be Free
TTITLE7=Don Gibson - Oh, Lonesome Me
TTITLE8=Willie Nelson - Home Is Were You're Happy
TTITLE9=Oak Ridge Boys - You'll Never Walk Alone
TTITLE10=Donna Fargo - Stick And Stones
TTITLE11=Carl Perkins - Daddy Sang Bass
TTITLE12=Gram Parson and Emmylou Harris - Love Hurts
TTITLE13=Higway Cowboys - Banjo Fever
TTITLE14=Freddy Fender - Baby , I Want To Love You
TTITLE15=Stu Stevens - Love Me Tender
EXTD=
EXTT0=
EXTT1=
EXTT2=
EXTT3=
EXTT4=
EXTT5=
EXTT6=
EXTT7=
EXTT8=
EXTT9=
EXTT10=
EXTT11=
EXTT12=
EXTT13=
EXTT14=
EXTT15=
PLAYORDER=
